# xmcd
#
# Track frame offsets:
#	150
#	24114
#	43254
#	69424
#	84854
#	110176
#	133284
#	148476
#	163773
#	177386
#	188418
#	205136
#	219013
#	237583
#	253018
#	266301
#	285551
#	306671
#
# Disc length: 4307 seconds
#
# Revision: 1
# Processed by: cddbd v1.5.2PL0 Copyright (c) Steve Scherf et al.
# Submitted via: EasyCDDAExtractor 11.0.2.1
#
DISCID=0f10d112
DTITLE=ĐORĐE BALAŠEVIĆ - Panonski Mornar
DYEAR=1900
DGENRE=Pop
TTITLE0=Svirajte Mi Jesen Stiže Dunjo Moja
TTITLE1=Neki Novi Klinci
TTITLE2=Priča O Vasi Ladačkom
TTITLE3=Život Je More
TTITLE4=Ne Lomite Mi Bagrenje
TTITLE5=Odlazi Cirkus
TTITLE6=Lepa Protina Kći
TTITLE7=Pesma O Jednom Petlu
TTITLE8=Oprosti Mi Katrin
TTITLE9=Panonski Mornar
TTITLE10=Moja Draga Sad Je U Japanu
TTITLE11=Brakolomac
TTITLE12=Boža Zvani Pub
TTITLE13=Devojka Sa Čardaš Nogama
TTITLE14=Drago Mi Je Zbog Mog Starog
TTITLE15=Mirka
TTITLE16=Slovenska
TTITLE17=Pa Dobro Gde Si Ti
EXTD=
EXTT0=
EXTT1=
EXTT2=
EXTT3=
EXTT4=
EXTT5=
EXTT6=
EXTT7=
EXTT8=
EXTT9=
EXTT10=
EXTT11=
EXTT12=
EXTT13=
EXTT14=
EXTT15=
EXTT16=
EXTT17=
PLAYORDER=
